<svg width="1851" height="1459" viewBox="0 0 1851 1459" fill="none" xmlns="http://www.w3.org/2000/svg">
<path fill-rule="evenodd" clip-rule="evenodd" d="M1499.09 998.709C1593.46 1004.24 1693.44 952.177 1762.36 885.56C1834.66 815.666 1866.59 738.299 1843.69 688.44C1836.04 671.813 1820.52 654.074 1789.5 643.152C1830.28 637.711 1831.78 634.333 1833.78 629.792C1835.28 626.434 1834.76 622.065 1832.55 619.132C1828.95 614.369 1824 607.826 1652.3 616.321C1581.07 619.861 1510.45 624.978 1450.03 630.864C1503.71 598.117 1537.8 545.537 1550 496.305C1562.2 447.033 1551.98 403.636 1523.3 383.045C1506.21 370.778 1477.7 362.474 1432.35 378.646C1454.19 343.33 1457.79 299.063 1442.07 249.225C1402.39 123.444 1256.59 0 1149.74 0C1147.73 0 1145.75 0.050567 1143.79 0.131474C1119.08 1.22372 1089.88 9.44592 1066.73 36.2464C1068 17.9715 1064.54 15.2712 1061.16 12.6215C1057.47 9.71898 1052.61 9.2841 1048.17 11.4383C1018.39 26.042 926.755 296.292 903.636 423.428C837.69 295.342 572.378 41.1818 495.106 15.2207C479.554 10.0123 471.804 14.6745 468.055 19.5088C463.384 25.5363 461.358 34.9924 471.307 57.8082C437.529 39.6648 397.358 39.8771 352.425 58.9308C174.679 134.326 -33.4101 495.901 4.52196 663.459C11.229 693.001 27.3481 725.91 64.5811 743.891C32.7279 749.413 26.4869 756.847 23.9439 763.815C22.5356 767.678 21.4718 775.344 30.195 783.313C58.4921 809.204 198.974 836.834 317.522 851.559C366.204 857.596 508.236 873.171 596.299 861.257C519.705 940.587 460.69 1121.44 466.079 1195.34C467.66 1216.99 474.863 1229.88 487.487 1233.66C495.734 1236.11 505.177 1234.13 516.088 1227.44C515.622 1232.91 516.99 1236.64 519.006 1239.66C523.96 1247.07 533.089 1249.06 546.189 1245.58C607.869 1229.2 826.738 1061.71 889.614 961.4C908.093 1089.46 995.021 1395.67 1021.5 1410.44C1025.56 1412.7 1030.34 1412.48 1033.99 1409.87C1037.55 1407.32 1040.85 1404.98 1039.72 1385.8C1073.97 1427.96 1134.09 1453.07 1215.61 1458.12C1225.13 1458.71 1234.86 1459 1244.8 1459C1417.35 1458.99 1646.54 1372.09 1681.19 1261.37C1687.83 1240.15 1688.87 1212.68 1670.8 1182.95C1748.2 1225.23 1757.4 1219.81 1762.89 1216.58C1767.02 1214.16 1769.4 1209.8 1769.22 1204.9C1768.25 1176.78 1631.7 1074.8 1499.09 998.709Z" fill="#CDF564"/>
</svg>
