<svg width="1492" height="1279" viewBox="0 0 1492 1279" fill="none" xmlns="http://www.w3.org/2000/svg">
<path fill-rule="evenodd" clip-rule="evenodd" d="M1491.53 810.788C1490.3 807.216 1486.58 796.349 1316.52 762.146C1261.64 751.099 1161.05 732.231 1026.99 712.892C1245.32 700.967 1384.92 593.062 1415.6 507.556C1426.08 478.32 1423.25 452.502 1407.61 434.858C1382.19 406.175 1326.01 402.969 1249.42 425.847C1203.77 439.481 1151.11 462.312 1093.08 493.443C1150.6 452.516 1199.69 417.068 1238.65 388.311C1337.56 315.282 1337.53 311.178 1337.5 305.984C1337.48 303.557 1336.27 301.063 1334.55 299.919C1331.76 298.043 1325.97 294.08 1178.58 397.582C1135.2 428.055 1060.58 481.446 971.481 549.235C1084.65 428.168 1135.07 310.766 1126.3 258.373C1123.85 243.702 1116.58 234.424 1105.83 232.243C1058.51 222.639 975.521 337.029 898.751 478.985C967.377 271.122 944.422 108.316 884.959 35.7322C854.181 -1.83017 815.485 -10.4892 783.989 13.1402C733.641 50.9021 699.43 167.792 730.159 386.11C694.306 255.107 654.275 129.744 631.694 126.765C627.499 126.166 623.867 128.84 621.582 133.934C604.527 172.015 650.187 419.948 739.177 596.214C612.478 477.555 365.592 475.646 285.55 518.795C261.495 531.764 257.975 546.448 259.263 556.477C264.172 594.858 352.534 630.092 512.028 658.457C510.392 658.45 508.777 658.45 507.152 658.45C199.409 658.45 38.0316 771.629 6.52443 856.018C-4.9454 886.744 -1.20617 915.793 17.0608 937.827C50.2793 977.889 127.183 989.9 228.029 970.787C305.625 956.082 396.075 923.628 495.167 875.258C361.692 963.398 222.091 1064.49 223.486 1100.9C223.695 1106.4 226.474 1110.81 231.12 1113.02C270.609 1131.78 517.205 1005 695.454 823.896C582.859 1005.21 545.29 1203.5 566.438 1261.64C571.818 1276.44 580.161 1279 585.284 1279C585.66 1279 586.019 1278.99 586.352 1278.96C598.9 1278.09 638.411 1256.05 706.372 1051.29C682.558 1160.37 668.727 1247.89 681.78 1261.62C684.8 1264.8 688.807 1265.14 692.788 1262.61C722.954 1243.41 799.793 1007.01 809.97 815.476C846.59 998.985 958.45 1213.35 992.608 1226.55C999.271 1229.11 1002.92 1224.92 1004.17 1223C1018.49 1201.31 973.144 1076.42 916.852 941.212C968.171 1024.69 1025.67 1089.27 1086.62 1131.26C1160.52 1182.15 1239.05 1198.57 1302.07 1176.25C1363.09 1154.65 1399.22 1101.31 1396.39 1037.04C1393.65 975.209 1354.5 911.517 1286.15 857.687C1238.07 819.826 1177.2 787.231 1104.19 760.15C1202.43 779.783 1286.33 795.405 1351.72 806.212C1484.39 828.139 1488.2 822.154 1490.73 818.203C1492.07 816.102 1492.37 813.262 1491.53 810.788Z" fill="#FFC864"/>
</svg>
