<svg width="1037" height="1062" viewBox="0 0 1037 1062" fill="none" xmlns="http://www.w3.org/2000/svg">
<path fill-rule="evenodd" clip-rule="evenodd" d="M1028.33 485.062C1006.7 465.902 947.107 466.84 860.529 487.655C763.807 510.914 639.436 557.743 499.437 623.553C699.075 399.31 744.274 204.079 622.853 85.32C506.567 -28.42 269.587 -28.45 153.283 85.2899C31.8142 204.085 77.0971 399.436 276.945 623.835C125.99 554.367 35.6884 536.681 8.35885 571.259C-20.5864 607.883 32.2466 684.68 66.3215 727.189C161.122 845.484 340.83 987.393 418.194 949.77C447.908 935.316 458.972 897.417 451.277 836.885C531.422 1002.19 589.727 1062.01 616.606 1062H616.93C624.21 1061.87 629.862 1057.82 632.853 1050.61C649.137 1011.41 590.099 872.239 437.763 710.201C794.344 681.382 1013.65 578.137 1035.29 513.682C1039.04 502.519 1036.57 492.355 1028.33 485.062" fill="#A0C3D2"/>
</svg>
