<svg width="2512" height="1743" viewBox="0 0 2512 1743" fill="none" xmlns="http://www.w3.org/2000/svg">
<path d="M1.40112 1022.04C12.9695 995.051 254.62 944.931 532.262 911.518C392.156 901.236 273.901 871.678 244.337 818.988C235.34 803.566 236.625 789.43 245.623 776.578C270.045 743.165 362.592 717.462 548.971 735.454C300.894 646.78 146.649 492.564 126.083 393.608C118.37 358.909 127.368 331.922 151.79 315.215C198.064 283.086 290.611 298.508 417.863 355.054C284.184 261.239 286.755 245.818 286.755 236.822C288.04 231.681 290.611 227.826 295.752 225.255C333.028 209.834 617.096 364.05 845.893 532.403C740.493 391.038 719.927 240.677 746.919 167.424C759.773 130.155 782.91 109.593 812.474 109.593H815.044C854.891 109.593 901.165 145.577 947.438 212.404C905.021 98.027 910.162 91.6014 914.018 86.4608C917.875 82.6054 921.731 81.3203 926.872 81.3203C932.014 82.6054 946.153 85.1757 1019.42 248.388C1051.55 319.07 1082.4 394.893 1109.4 468.146C1105.54 276.661 1212.23 82.6054 1293.2 22.2041C1330.48 -7.35405 1356.19 -2.21351 1370.33 8.06757C1403.75 29.9149 1408.89 98.027 1399.89 178.991C1456.45 45.3365 1515.57 15.7784 1551.57 13.2081C1593.98 9.35271 1633.83 40.196 1658.25 95.4568C1703.24 198.268 1695.53 358.909 1608.12 500.274C1699.38 419.311 1775.22 355.054 1820.21 317.785C1971.88 191.842 1979.6 194.412 1987.31 195.697C1991.16 196.982 1993.73 200.838 1995.02 204.693C1996.31 211.119 1997.59 217.545 1888.33 313.93C1984.74 257.384 2058 235.536 2099.14 254.814C2118.42 263.809 2128.7 283.086 2128.7 307.504C2126.13 376.901 2031.01 506.7 1836.92 619.792C2037.44 560.676 2186.54 554.25 2225.1 588.949C2234.1 596.659 2237.96 608.226 2234.1 618.507C2223.82 655.776 2137.7 696.9 2000.16 734.169C2272.66 716.177 2468.04 757.301 2505.31 807.422C2513.03 818.988 2514.31 830.554 2507.89 842.12C2489.89 875.534 2406.34 897.381 2271.38 906.377C2367.78 916.658 2371.64 924.369 2374.21 929.509C2375.49 933.365 2375.49 938.505 2372.92 942.361C2358.78 961.638 2180.11 961.638 2073.43 960.353C1953.89 957.782 1835.63 952.642 1731.52 943.646C1833.06 979.63 1917.9 1032.32 1934.61 1094.01C1939.75 1115.85 1934.61 1135.13 1917.9 1147.98C1903.76 1159.55 1853.63 1183.97 1718.66 1135.13C1881.91 1255.93 1964.17 1389.59 1959.03 1452.56C1957.74 1470.55 1947.46 1484.69 1932.04 1489.83C1892.19 1505.25 1818.92 1466.7 1721.23 1384.45C1767.51 1452.56 1782.93 1503.96 1766.22 1536.09C1753.37 1560.51 1723.81 1572.08 1680.1 1565.65C1563.13 1548.94 1380.61 1424.29 1303.49 1250.79C1293.2 1448.7 1145.39 1655.61 1027.13 1722.44C1001.42 1737.86 980.858 1743 964.148 1743C947.438 1743 935.87 1736.57 928.157 1730.15C899.879 1704.45 898.594 1645.33 923.016 1555.37C878.028 1628.62 838.181 1664.61 806.047 1660.75C789.337 1659.47 766.2 1646.61 754.632 1595.21C728.924 1475.69 781.625 1203.24 912.733 1056.74C735.351 1136.42 546.401 1158.26 507.839 1131.28C500.127 1126.14 496.271 1118.42 497.556 1110.71C500.127 1095.29 523.264 1077.3 566.967 1056.74C448.712 1081.16 349.738 1095.29 289.325 1101.72C234.054 1108.14 50.2454 1127.42 24.5378 1101.72C20.6819 1096.58 19.3965 1090.15 21.9673 1085.01C25.8232 1072.16 60.5286 1056.74 127.368 1038.75C12.9695 1049.03 6.54272 1040.03 2.68652 1034.89C0.115723 1031.04 -1.16968 1025.89 1.40112 1022.04Z" fill="#EB85A7"/>
</svg>
