<svg width="637" height="462" viewBox="0 0 637 462" fill="none" xmlns="http://www.w3.org/2000/svg">
<path fill-rule="evenodd" clip-rule="evenodd" d="M303.285 292.092C290.762 335.098 351.088 430.117 382.539 450.438C387.596 453.711 390.038 453.666 390.618 453.181C391.534 452.43 398.733 443.896 370.624 377.638C370.409 377.128 370.303 376.602 370.303 376.084C370.299 374.514 371.236 373.024 372.789 372.377C374.858 371.53 377.23 372.482 378.098 374.522C407.25 443.233 421.663 445.675 424.34 445.49C427.085 445.273 429.575 441.378 431.169 434.812C439.933 398.762 419.173 304.935 373.329 276.908C372.084 276.145 371.398 274.832 371.402 273.483C371.402 272.768 371.597 272.037 372.007 271.383C373.183 269.491 375.685 268.909 377.587 270.077C433.566 304.293 580.71 305.465 593.254 294.534C591.003 292.149 577.372 283.105 496.034 269.957C494.043 269.636 492.631 267.929 492.631 265.993C492.631 265.781 492.647 265.568 492.684 265.347C493.045 263.158 495.117 261.66 497.344 262.03C567.055 273.294 600.29 276.816 616.054 277.724C586.85 269.439 514.081 255.665 435.127 249.717C432.998 249.556 431.38 247.797 431.38 245.717C431.38 245.617 431.384 245.512 431.392 245.408C431.563 243.199 433.428 241.533 435.744 241.709C515.29 247.681 567.132 192.439 582.543 153.83C591.039 132.558 589.847 114.869 579.351 106.512C570.883 99.7649 542.908 89.6129 466.225 140.763C464.376 142 461.841 141.522 460.596 139.679C460.126 138.988 459.903 138.209 459.903 137.434C459.903 136.145 460.531 134.88 461.695 134.105C517.853 96.6446 539.724 79.3242 548.237 71.4853C522.525 81.9988 444.175 127.366 388.772 176.636C387.11 178.114 384.542 177.982 383.046 176.331C382.348 175.564 382.008 174.604 382.008 173.649C382.008 172.548 382.462 171.452 383.354 170.661C430.666 128.583 442.91 72.3406 433.55 47.9162C431.838 43.4546 428.594 38.1215 422.847 38.0854H422.786C411.123 38.0854 390.597 58.3775 367.894 115.371C367.075 117.435 364.723 118.443 362.63 117.636C361.032 117.009 360.063 115.495 360.063 113.897C360.063 113.407 360.152 112.905 360.343 112.423C368.474 92.0224 374.428 76.489 378.779 64.6704C367.42 90.4763 352.974 127.125 342.036 162.862C341.391 164.986 339.136 166.195 336.979 165.541C335.227 165.015 334.099 163.424 334.099 161.702C334.099 161.32 334.152 160.922 334.274 160.533C351.53 104.166 317.816 30.6681 293.008 12.2915C290.267 10.2595 285.165 7.17533 281.929 9.28767C279.475 10.886 268.132 22.5721 285.781 96.3113C285.854 96.6205 285.891 96.9338 285.891 97.239C285.891 99.0622 284.634 100.709 282.768 101.142C280.603 101.66 278.404 100.319 277.889 98.1626C259.392 20.8774 236.705 12.7172 230.196 12.0546C222.588 11.2916 215.251 17.1949 210.032 28.2666C196.373 57.2209 198.587 118.664 246.26 164.613C247.083 165.4 247.489 166.448 247.489 167.496C247.489 168.504 247.104 169.516 246.341 170.291C244.776 171.882 242.209 171.918 240.607 170.368C228.408 158.613 216.188 147.152 204.431 136.345C204.257 136.787 204.005 137.209 203.665 137.582C202.168 139.237 199.605 139.377 197.934 137.892C137.766 84.4324 102.835 71.5897 91.1755 76.8304C90.1576 77.2922 87.0591 78.6897 87.1443 84.5167C87.489 106.921 128.304 154.702 204.042 186.15C205.595 186.793 206.532 188.282 206.532 189.853C206.532 190.371 206.43 190.901 206.211 191.407C205.352 193.451 202.967 194.419 200.907 193.555C117.151 158.79 35.5981 181.46 13.4791 203.924C9.6304 207.836 5.59512 213.719 8.2434 219.562C14.0753 232.429 50.0603 244.822 133.536 240.975C135.791 240.798 137.668 242.589 137.77 244.806C137.774 244.866 137.774 244.934 137.774 244.994C137.77 247.127 136.079 248.898 133.905 249.002C88.069 251.103 60.8562 253.066 44.7029 254.641C84.3176 256.199 165.133 254.861 226.741 245.721C229.028 245.428 231.023 246.91 231.356 249.099C231.384 249.303 231.396 249.504 231.396 249.697C231.396 251.657 229.957 253.367 227.945 253.669C168.856 262.431 139.262 316.252 134.485 348.11C131.958 364.984 135.43 377.405 143.784 381.333C150.638 384.55 171.65 386.574 218.496 335.713C220.004 334.066 222.576 333.958 224.226 335.452C225.102 336.243 225.548 337.327 225.548 338.415C225.548 339.383 225.2 340.355 224.49 341.126C181.765 387.517 179.595 399.649 179.652 401.798C180.609 401.898 183.602 401.774 190.739 398.38C219.895 384.513 283.381 331.468 295.491 289.864C296.111 287.743 298.346 286.51 300.511 287.121C302.292 287.631 303.447 289.233 303.443 290.98C303.443 291.345 303.391 291.719 303.285 292.092M390.407 462C387.111 462 383.218 460.555 378.766 457.669C362.364 447.052 338.34 417.087 320.333 384.799C310.719 367.561 296.9 338.952 294.475 313.29C267.969 358.32 203.433 408.28 182.125 410.188C176.286 410.723 173.991 407.846 173.108 406.083C171.932 403.736 169.47 398.806 183.301 379.04C162.593 392.869 149.29 392.841 141.006 388.941C129.263 383.403 124.093 367.798 127.171 347.195C132.057 314.485 154.918 277.569 190.559 258.153C118.035 264.818 21.925 265.563 16.3172 258.053C15.3238 256.724 15.1495 254.982 15.855 253.501C16.7998 251.528 17.9675 249.085 49.9273 246.171C23.2631 241.953 6.6628 234.081 1.57811 222.843C-1.9455 215.047 0.475206 206.313 8.4023 198.243C30.6468 175.6 92.9972 159.395 159.123 172.315C105.632 140.648 80.0462 103.51 79.7502 84.3118C79.6448 77.1516 82.7589 71.7744 88.5288 69.1623C98.3495 64.7229 114.82 68.9691 135.937 80.8424C113.847 60.0178 114.232 58.3395 114.67 56.3955C114.99 54.9747 116.146 53.7511 117.553 53.3366C119.905 52.6564 121.961 52.0285 162.196 86.8757C172.844 96.0966 190.701 111.806 212.216 131.672C190.778 90.977 192.335 47.8668 203.372 24.41C210.148 10.0171 220.544 2.45037 231.707 3.5572C245.287 4.93772 258.015 18.4371 269.003 42.5379C267.385 20.6467 270.438 7.09102 278.159 2.06398C282.031 -0.455578 288.717 -1.9327 298.542 5.36033C318.897 20.4737 346.393 71.058 347.812 122.178C364.603 75.7429 387.005 23.601 394.04 22.1721C395.512 21.8743 397.313 22.4941 398.27 23.6291C399.571 25.1666 401.075 26.9496 392.751 51.2396C403.411 37.048 413.812 29.606 423.434 29.606H423.555C431.62 29.6584 438.092 35.0034 441.781 44.655C449.242 64.1715 445.297 103.41 419.902 141.598C473.737 101.289 546.739 56.649 558.96 61.2052C560.765 61.8854 561.973 63.4027 562.192 65.2582C562.488 67.81 563.023 72.3822 525.342 100.013C552.031 90.1036 572.495 89.9346 585.053 99.9605C598.466 110.667 600.575 131.845 590.709 156.622C577.722 189.216 540.341 233.026 483.233 246.28C558.125 254.994 632.749 270.127 636.581 278.664C637.295 280.254 637.088 282.025 636.026 283.393C634.643 285.172 632.275 288.239 591.001 283.623C600.891 288.038 601.653 291.25 602.128 293.25C602.452 294.622 602.764 298.136 598.653 301.078C580.783 313.865 465.664 312.288 399.291 288.67C434.134 329.824 447.413 405.354 439.705 437.155C436.494 450.4 430.286 453.628 425.647 453.995C417.915 454.719 408.901 447.285 398.793 432.099C402.949 450.795 399.948 456.985 396.469 459.863C394.75 461.288 392.727 462 390.407 462" fill="#A0C3D2"/>
</svg>
